# xmcd CD database file
#
# Track frame offsets:
#	150
#	16040
#	36668
#	59434
#	80738
#	100984
#	118152
#	135878
#
# Disc length: 2091 seconds
#
# Revision: 0
# Processed by: cddbd v1.5.1PL2 Copyright (c) Steve Scherf et al.
# Submitted via: CDex 1.70beta2
#
DISCID=67082908
DTITLE=Jenzi - ¿Sabes Quién Llegó?...
DYEAR=2006
DGENRE=Salsa
TTITLE0=Misteriosa Mujer
TTITLE1=Contigo No Puedo Vivir
TTITLE2=Como Te Quiero
TTITLE3=Si Tú Me Amarás
TTITLE4=Es Cuestón De Tiempo
TTITLE5=Cura Tu Herida
TTITLE6=Amanecer
TTITLE7=Infiel
EXTD=YEAR: 2006
EXTT0=
EXTT1=
EXTT2=
EXTT3=
EXTT4=
EXTT5=
EXTT6=
EXTT7=
PLAYORDER=
